<svg width="39" height="32" viewBox="0 0 39 32" fill="none" xmlns="http://www.w3.org/2000/svg">
<path d="M32.6132 10.9513L38.7746 7.88021L32.1139 9.6182C31.3109 7.77431 30.1728 6.10188 28.7595 4.6892C25.6913 1.56307 21.9958 0 17.673 0H2.77939C2.6118 0.0102305 2.44491 0.0302495 2.27956 0.0599562C2.26607 0.068066 2.25106 0.073199 2.23549 0.0750098C1.76621 0.174225 1.33039 0.39625 0.970919 0.71923C0.858417 0.813854 0.755027 0.919182 0.662156 1.03381C0.224041 1.55447 -0.0113661 2.22081 0.000560425 2.90653V18.6963L32.3626 10.2321L32.2011 10.3219L32.1277 10.352L0.000560425 26.3217V29.0789C-0.0130696 29.7694 0.222328 30.441 0.662156 30.9664C0.755027 31.081 0.858417 31.1864 0.970919 31.281C1.33039 31.604 1.76621 31.826 2.23549 31.9252C2.25106 31.927 2.26607 31.9322 2.27956 31.9403C2.4449 31.97 2.61179 31.99 2.77939 32H17.6739C21.9969 32 25.6924 30.432 28.7604 27.296C31.8283 24.1702 33.3624 20.405 33.3625 16.0005C33.3756 14.2877 33.1227 12.5836 32.6132 10.9513Z" fill="#0078FF"/>
</svg>
